<svg xmlns="http://www.w3.org/2000/svg" width="70" height="90" viewBox="0 0 70 90">
  <g fill="none" fill-rule="evenodd">
    <path fill="#94a2b3" d="M0.0250346704,18.3780043 C0.662860668,18.6897924 1.31025406,18.9017309 2.07341286,18.9886966 C5.85795342,19.4206261 9.23619881,16.7098739 9.66354223,12.8901484 C9.80482069,11.6246368 9.55192268,10.3256274 9.07801796,9.35934215 L0.0250346704,9.35934215 L0.0250346704,18.3780043 Z M20.1165536,22.4784357 C19.4787276,22.4172377 19.528478,22.3686013 19.2554885,22.3380023 C15.470629,21.9112263 12.0193526,24.6590194 11.5967928,28.4819659 C11.5403452,28.9921645 11.511962,29.6514931 11.563307,29.9735882 L20.1165536,29.9735882 L20.1165536,22.4784357 Z M6.76829057,28.726887 L9.5610117,27.9793043 C9.60374604,27.6778233 9.66178821,27.3840726 9.73290581,27.0932208 L7.39718701,25.2936756 L7.96357649,24.0342838 L10.8197613,24.4932693 C10.9792178,24.2355932 11.1511119,23.9859695 11.3338491,23.746975 L9.92680491,21.1463793 L10.94924,20.2267979 L13.3621357,21.8105394 C13.6134392,21.6346755 13.8746289,21.4726616 14.1434726,21.3244979 L13.9081148,18.3863466 L15.2131068,17.9605369 L16.7582403,20.3520929 C17.0682237,20.2921832 17.385861,20.2219665 17.7057308,20.1952326 L18.7237011,17.4074997 L20.1163941,17.5579181 L20.1163941,9.35930994 L13.8937637,9.35930994 L14.0589606,10.1291172 L11.6836966,11.3231236 C11.7136744,11.6906341 11.722604,12.0507364 11.7082529,12.4250109 L14.1469806,13.5900288 L13.8510294,14.9379967 L11.2040515,15.0726324 C11.0796754,15.4272591 10.9352078,15.7719009 10.769692,16.1033367 L12.5221189,18.1721534 L11.7085718,19.2856361 L9.22455849,18.3151636 C8.96942809,18.5831467 8.70058443,18.8327704 8.41483838,19.0669335 L9.18852132,21.6949072 L7.99833801,22.3777488 L6.10112458,20.4519423 C5.77136854,20.5859339 5.43013163,20.7022102 5.08187863,20.7972283 L4.72629064,23.5443772 L3.36325648,23.6786908 L2.39089075,21.0999976 C2.17817578,21.0919453 1.96450407,21.0745521 1.7492378,21.0497508 C1.61752673,21.0349344 1.48836696,21.0178634 1.36016394,20.996283 L0,23.4000786 L0.0248752139,23.3772098 L0.0248752139,29.9733949 L6.75872318,29.9733949 L6.76829057,28.726887 Z M30.3366309,9.93766387 C30.7167752,9.8832298 31.0790604,9.84200163 31.4234864,9.81462355 C31.7679124,9.78692337 32.1477378,9.77339538 32.564876,9.77339538 C32.9268423,9.77339538 33.2805168,9.78692337 33.6249428,9.81462355 C33.968731,9.84200163 34.3491942,9.8832298 34.7660135,9.93766387 L40.8798946,29.6708188 C40.1371463,29.7806533 39.412257,29.8354094 38.7058647,29.8354094 C38.0176505,29.8354094 37.3476143,29.7806533 36.6951183,29.6708188 L35.6082628,25.7187122 L29.1410261,25.7187122 L28.027063,29.6708188 C27.374567,29.7806533 26.7494975,29.8354094 26.1518545,29.8354094 C25.4818183,29.8354094 24.8200738,29.7806533 24.1678968,29.6708188 L30.3366309,9.93766387 Z M34.6846907,22.397912 L32.4290191,14.1097614 L30.0652359,22.397912 L34.6846907,22.397912 Z M43.668438,9.9377927 C44.3381553,9.82795828 44.9814028,9.77320212 45.5975427,9.77320212 C46.2312229,9.77320212 46.8926484,9.82795828 47.5818194,9.9377927 L47.5818194,26.2129349 L54.3472398,26.2129349 C54.4020928,26.5240788 54.4384489,26.8213725 54.456308,27.1048162 C54.474486,27.388904 54.4830967,27.6584976 54.4830967,27.9145632 C54.4830967,28.2073476 54.474486,28.4953006 54.456308,28.7787443 C54.4384489,29.0628322 54.4020928,29.3601259 54.3472398,29.6709477 L43.668438,29.6709477 L43.668438,9.9377927 Z M61.4671638,20.5316931 C60.8513428,20.2939869 60.2989855,20.033412 59.809773,19.7493241 C59.3211982,19.4658805 58.9037411,19.1276806 58.5599529,18.7340805 C58.2155269,18.3404803 57.9485967,17.8692552 57.7585245,17.3204052 C57.5678146,16.7715551 57.4730974,16.1128707 57.4730974,15.3446739 C57.4730974,14.4115645 57.6312783,13.5879674 57.9485967,12.8745268 C58.2652773,12.1610862 58.713669,11.5619893 59.2934528,11.0769142 C59.8729177,10.5924832 60.5706994,10.2262611 61.3861599,9.97889204 C62.2013015,9.73216721 63.1156251,9.60880479 64.1307252,9.60880479 C65.0546161,9.60880479 65.9191893,9.69093904 66.7257202,9.85552962 C67.5316134,10.0201202 68.3786463,10.2581485 69.2665001,10.5689702 C69.1577508,11.6305956 68.8678589,12.6735395 68.3968244,13.6978018 C68.1247916,13.5879674 67.8489318,13.4784551 67.5682884,13.3686206 C67.2866882,13.2587862 66.9881856,13.1673112 66.6711861,13.0938735 C66.3541866,13.02108 65.9960473,12.9614925 65.5980439,12.9154329 C65.1994026,12.8703396 64.7462273,12.8471487 64.2391556,12.8471487 C63.9310856,12.8471487 63.618232,12.8745268 63.3015514,12.929283 C62.9845519,12.9843612 62.6991247,13.085177 62.4459078,13.231086 C62.1914152,13.3779614 61.983484,13.5927988 61.8205194,13.8762425 C61.6578738,14.1603303 61.5762321,14.5304176 61.5762321,14.9877926 C61.5762321,15.3540147 61.6390579,15.6603271 61.7663042,15.9070519 C61.8929127,16.1540989 62.0654446,16.3647491 62.2826243,16.5386804 C62.500123,16.7126117 62.7447293,16.8588429 63.0164432,16.977696 C63.288157,17.0968712 63.5598709,17.2105707 63.8315848,17.3204052 L65.4621869,17.9517115 C66.1507201,18.2261365 66.7754707,18.5102244 67.3370765,18.8026867 C67.8983633,19.0954711 68.3738626,19.4568618 68.7638932,19.8865366 C69.1529671,20.3168557 69.4565723,20.8383276 69.6740709,21.4509524 C69.8912507,22.0642215 70,22.8192123 70,23.7152808 C70,24.6483903 69.8322518,25.4990434 69.4973931,26.2675622 C69.1618966,27.0360811 68.6771489,27.6947655 68.0437877,28.2436155 C67.4094697,28.7924656 66.6262194,29.2224625 65.69308,29.5336063 C64.7599405,29.8444281 63.6861605,30 62.4730154,30 C61.8747346,30 61.3405553,29.9816406 60.8695208,29.9455659 C60.3981674,29.9082029 59.9497758,29.8495816 59.5246647,29.7668032 C59.098597,29.6846689 58.6776318,29.5796659 58.2608125,29.45115 C57.8439932,29.3236003 57.4089959,29.1677063 56.9564584,28.9847563 C57.0109925,28.4542657 57.1104933,27.9005843 57.2552798,27.3243562 C57.4000663,26.747806 57.5719604,26.1673907 57.7716,25.5814997 C58.5328453,25.8929657 59.2481672,26.1258404 59.9188412,26.2817344 C60.5882396,26.4369842 61.3041993,26.5146092 62.0654446,26.5146092 C63.2065153,26.5146092 64.1036176,26.2997717 64.7557946,25.8697748 C65.4073339,25.4397779 65.7339008,24.7856028 65.7339008,23.9072495 C65.7339008,23.4682339 65.656405,23.1023339 65.5030078,22.8095495 C65.3486539,22.5170871 65.1496522,22.2700402 64.904727,22.0684087 C64.6604397,21.8674214 64.3839421,21.6979994 64.07651,21.5607869 C63.7681211,21.4238964 63.4511216,21.2908712 63.1251925,21.1629994 L61.4671638,20.5316931 Z M3.82759381,1.44201966 C3.44681169,1.44201966 3.13332021,1.53671562 2.87627634,1.73029476 L2.90848655,1.5901834 L2.84821199,1.56344951 C2.83577438,1.5576518 2.72032788,1.50933754 2.47763509,1.50933754 C2.23940708,1.50933754 2.10801492,1.55990646 2.10227449,1.56183903 L2.06304819,1.5772996 L0.90826422,6.63064928 L0.892637483,6.69796715 L0.95610117,6.72373476 C0.967900951,6.72856618 1.07728811,6.77011645 1.31200808,6.77011645 C1.55406304,6.77011645 1.68896324,6.7275999 1.69470368,6.72566733 L1.73807584,6.71181724 L2.13639818,4.96831658 C2.30956794,5.17832257 2.58989246,5.2810709 2.98725806,5.2810709 C3.89552228,5.2810709 4.47945198,4.65910531 4.7718952,3.37974366 C4.94761626,2.61219108 4.91317366,2.0874982 4.666335,1.77409969 C4.49029502,1.55056571 4.21602984,1.44201966 3.82759381,1.44201966 Z M3.91178684,3.34334691 C3.67866144,4.36277783 3.34188931,4.5676303 2.87372503,4.5676303 C2.70087419,4.5676303 2.56980094,4.51222995 2.48337552,4.40271762 C2.37622075,4.26647141 2.34656184,4.04809094 2.40237162,3.80426497 L2.59945985,2.94169435 C2.68588528,2.56291054 2.99267958,2.15546026 3.46211951,2.15546026 C3.68121274,2.15546026 3.82121555,2.20313033 3.90190054,2.30555657 C4.03074139,2.46918087 4.03393052,2.80866908 3.91178684,3.34334691 Z M10.7556917,1.44201966 C9.69052227,1.44201966 9.03069128,2.06366317 8.73824806,3.34334691 C8.57528351,4.05614332 8.61993133,4.55957793 8.87474282,4.88360558 C9.08267409,5.14740144 9.43252165,5.2810709 9.91503702,5.2810709 C10.9805253,5.2810709 11.6406753,4.65910531 11.9327996,3.37974366 C12.096083,2.66533677 12.0517541,2.16093588 11.7975805,1.83819661 C11.5877357,1.57150189 11.2468177,1.44201966 10.7556917,1.44201966 Z M11.0726912,3.34334691 C10.8194743,4.44909931 10.4237033,4.60145029 10.0336727,4.60145029 C9.83020616,4.60145029 9.69690053,4.55281393 9.61430206,4.44813303 C9.47493708,4.27162493 9.467921,3.92215177 9.59134033,3.37974366 C9.84487616,2.2710924 10.2623333,2.12164028 10.6370561,2.12164028 C10.8392469,2.12164028 10.9712769,2.16963245 11.0525997,2.27302497 C11.190689,2.44824469 11.1970673,2.79836204 11.0726912,3.34334691 Z M20.9543061,1.5092087 C20.7498829,1.5092087 20.6188097,1.55977763 20.6133881,1.5617102 L20.5859616,1.57266143 L19.4391505,3.74100549 C19.3779192,3.85502715 19.3214716,3.96421738 19.2701266,4.06922038 C19.2710833,3.97838957 19.2688509,3.8778959 19.2615159,3.76773939 L19.1377777,1.58457895 L19.0947245,1.56428696 C19.0832436,1.55848925 18.9732186,1.5092087 18.7362662,1.5092087 C18.5229134,1.5092087 18.3427276,1.55687877 18.3350737,1.55913344 L18.3015878,1.5681521 L17.1643441,3.74809159 C17.1031128,3.86436791 17.0527245,3.96808253 17.010628,4.06052381 C17.0103091,3.97484652 17.0074389,3.88079476 16.999466,3.779979 L16.8403285,1.63096064 L16.8380961,1.59907323 L16.8148154,1.57781495 C16.7924915,1.55687877 16.7153146,1.5092087 16.4774055,1.5092087 C16.2471503,1.5092087 16.1039583,1.55881134 16.097899,1.56074391 L16.0404947,1.581358 L16.2898846,5.09187225 L16.2937116,5.14695051 L16.3460133,5.16337736 C16.4544437,5.19655315 16.5922141,5.21362419 16.7558165,5.21362419 C16.9232458,5.21362419 17.0616541,5.19719734 17.1783762,5.16369946 L17.2112243,5.1540366 L18.1848657,3.29844686 C18.2808585,3.1187178 18.3625002,2.95026208 18.4310665,2.79050292 C18.4269206,2.93834456 18.4297908,3.09584905 18.4390393,3.26462687 L18.5525724,5.14888308 L18.6077443,5.16402155 C18.7324393,5.19816363 18.858091,5.21362419 19.0146773,5.21362419 C19.1728581,5.21362419 19.3026557,5.19848572 19.4353235,5.16434365 L19.4697661,5.15532498 L21.3427422,1.60970236 L21.2815109,1.56944048 C21.266522,1.55945553 21.1788209,1.5092087 20.9543061,1.5092087 Z M26.7203169,1.44192304 C25.6994764,1.44192304 24.9847924,2.10994823 24.7073381,3.32295829 C24.5440546,4.03800937 24.590297,4.54563121 24.8495733,4.87449028 C25.0619694,5.14408386 25.4175573,5.28097427 25.9067699,5.28097427 C26.6670585,5.28097427 27.1304391,4.99817479 27.1498928,4.98625728 L27.1795517,4.96757576 L27.1862488,4.93311159 C27.2270697,4.72181722 27.1779571,4.50859028 27.0583647,4.37781967 L27.016906,4.33272636 L26.9626908,4.36107073 C26.9588639,4.3630033 26.606465,4.54756378 26.1475492,4.54756378 C25.8825325,4.54756378 25.7115951,4.44642593 25.6098619,4.32531818 C25.4931397,4.18681729 25.4593349,3.88372582 25.5062152,3.56163075 L27.5810631,3.56163075 L27.603387,3.56259703 C27.6091275,3.5513237 27.7459411,3.30137792 27.8438474,2.87234728 C27.9490887,2.41142922 27.9015707,2.06066768 27.7022501,1.80782305 C27.5054807,1.55723307 27.1750869,1.44192304 26.7203169,1.44192304 Z M25.6564232,2.91744059 C25.8560627,2.27325043 26.1727433,2.08836786 26.5988111,2.08836786 C26.7793158,2.08836786 26.906881,2.1576183 26.9779986,2.24812702 C27.0806886,2.37825343 27.0593215,2.55604991 27.0236032,2.71194393 C27.0009604,2.81243759 26.9748095,2.91744059 26.9553558,2.91744059 L25.6564232,2.91744059 Z M33.8179809,1.44881587 C33.619617,1.44881587 33.3287683,1.52160936 32.9948664,1.8330753 L33.0506762,1.59021561 L32.9904016,1.56315962 C32.977964,1.55768401 32.8625175,1.50904765 32.6265219,1.50904765 C32.3780887,1.50904765 32.2565828,1.55703982 32.2431885,1.56251543 L32.2049189,1.57829809 L31.4073175,5.06787617 L31.3929664,5.12971842 L31.4490951,5.15838489 C31.4602571,5.1638605 31.5654984,5.21346314 31.8168018,5.21346314 C32.0540731,5.21346314 32.1908867,5.1638605 32.1969461,5.16160584 L32.237448,5.14678946 L32.8035186,2.6705225 C33.0436601,2.37709389 33.3223901,2.20251835 33.5523263,2.20251835 C33.6885022,2.20251835 33.7966137,2.24116976 33.8922876,2.32459239 L33.93853,2.36453218 L33.9889182,2.3303901 C34.2236382,2.17127513 34.3703382,1.97801808 34.4510232,1.72227459 L34.4685634,1.66655214 L34.4220021,1.63241007 C34.2529782,1.50904765 34.055571,1.44881587 33.8179809,1.44881587 Z M39.7817177,1.44192304 C38.7611961,1.44192304 38.0465121,2.10994823 37.7687389,3.32295829 C37.6054554,4.03800937 37.6516978,4.54563121 37.9109741,4.87449028 C38.1233701,5.14408386 38.479277,5.28097427 38.9684896,5.28097427 C39.7287782,5.28097427 40.1921587,4.99817479 40.2116124,4.98625728 L40.2412714,4.96757576 L40.2479685,4.93311159 C40.2887894,4.72181722 40.2399957,4.50859028 40.1200844,4.37781967 L40.0786257,4.33272636 L40.0244105,4.36107073 C40.0205836,4.3630033 39.6681847,4.54756378 39.20895,4.54756378 C38.9442522,4.54756378 38.7733148,4.44642593 38.6712627,4.32499608 C38.5545405,4.18681729 38.5207357,3.88372582 38.5676159,3.56163075 L40.6424639,3.56163075 L40.6651067,3.56259703 C40.6705282,3.5513237 40.8076608,3.30137792 40.9055671,2.87234728 C41.0108084,2.41142922 40.9632904,2.06066768 40.7642887,1.80782305 C40.5672004,1.55723307 40.2368066,1.44192304 39.7817177,1.44192304 Z M38.7184618,2.91744059 C38.9174635,2.27325043 39.2341441,2.08836786 39.6602119,2.08836786 C39.8407166,2.08836786 39.9682818,2.1576183 40.0397183,2.24812702 C40.1420894,2.37825343 40.1210412,2.55604991 40.0856418,2.71162183 C40.0626801,2.8121155 40.0368481,2.91744059 40.0170755,2.91744059 L38.7184618,2.91744059 Z M48.1621773,3.22095078e-05 C47.917571,3.22095078e-05 47.7804384,0.0502790417 47.7743791,0.0525337072 L47.734196,0.0676721759 L47.3476735,1.75802715 C47.1713146,1.54576649 46.8909901,1.44205187 46.4977703,1.44205187 C45.5895061,1.44205187 45.0055764,2.06369538 44.7131332,3.34337912 C44.5374121,4.11093169 44.5718547,4.63594667 44.8186934,4.94870099 C44.9944145,5.17255707 45.2689986,5.28110311 45.6571157,5.28110311 C46.0729782,5.28110311 46.4142151,5.16611517 46.6929451,4.93130786 L46.6725347,5.14034756 L46.7305768,5.16160584 C46.7359984,5.1638605 46.8718553,5.21378524 47.0552303,5.21378524 C47.2386052,5.21378524 47.3747811,5.1638605 47.3808404,5.16160584 L47.4213424,5.14678946 L48.5643266,0.146263375 L48.5789966,0.0831327397 L48.5209544,0.055432563 C48.5091546,0.0496348515 48.3991296,3.22095078e-05 48.1621773,3.22095078e-05 Z M47.0871216,2.89888791 L46.8884388,3.76757834 C46.8004188,4.15312615 46.4920299,4.56766251 46.0229089,4.56766251 C45.8034967,4.56766251 45.6634939,4.51967035 45.5828089,4.41724411 C45.454287,4.25394191 45.4510979,3.91445369 45.5732416,3.37977586 C45.806367,2.36002285 46.1431391,2.15517038 46.6113034,2.15517038 C46.7819218,2.15517038 46.9120383,2.20992654 46.9987827,2.31815049 C47.1052996,2.45149785 47.1371909,2.66375851 47.0871216,2.89888791 Z M59.2240892,1.44201966 C58.8429882,1.44201966 58.5294967,1.53671562 58.2724528,1.73029476 L58.6497269,0.0814900548 L58.5894524,0.0544340682 C58.5770148,0.0486363568 58.4612493,0 58.2185565,0 C57.9806474,0 57.8489364,0.0508910224 57.8431959,0.0531456879 L57.8039696,0.0686062517 L56.6466344,5.13161879 L56.7049955,5.15931896 C56.7167952,5.16479458 56.8271391,5.21375303 57.0640915,5.21375303 C57.3080599,5.21375303 57.4451925,5.16382829 57.450933,5.16189572 L57.4914349,5.14707935 L57.5325747,4.96831658 C57.7057444,5.17832257 57.9857501,5.2810709 58.3834346,5.2810709 C59.2916988,5.2810709 59.8756285,4.65910531 60.1680717,3.37974366 C60.3437928,2.61219108 60.3093502,2.08717611 60.0625115,1.77409969 C59.8864715,1.55056571 59.6125253,1.44201966 59.2240892,1.44201966 Z M59.3079633,3.34334691 C59.0748379,4.36277783 58.7380658,4.5676303 58.2699015,4.5676303 C58.0970507,4.5676303 57.9659775,4.51222995 57.879552,4.40271762 C57.7723973,4.26647141 57.7427384,4.04809094 57.7985481,3.80394287 L57.9953174,2.94169435 C58.0820618,2.56291054 58.389175,2.15546026 58.858296,2.15546026 C59.0773893,2.15546026 59.2173921,2.20313033 59.298077,2.30555657 C59.4269179,2.46918087 59.430107,2.80866908 59.3079633,3.34334691 Z M67.6554473,1.56270869 C67.6503447,1.56045403 67.5259686,1.50924091 67.3138915,1.50924091 C67.0763013,1.50924091 66.9445902,1.55948774 66.9388498,1.56174241 L66.91238,1.57204945 L65.75058,3.65213946 C65.6300309,3.87084202 65.5346759,4.05797926 65.4670663,4.19486967 C65.4587746,4.05894555 65.4434667,3.88018278 65.4147646,3.67275355 L65.0958516,1.58010182 L65.0543929,1.5623866 C65.0413175,1.55691098 64.9201305,1.50924091 64.6783945,1.50924091 C64.4423988,1.50924091 64.2928286,1.55819936 64.2867693,1.56045403 L64.2229867,1.5820344 L64.7517445,5.13957453 L64.7887384,5.15825605 C64.826689,5.17758175 64.8649586,5.18917718 64.9032281,5.19690746 L64.7249558,5.50483035 C64.3703245,6.14644375 64.2111869,6.17768697 63.9605213,6.17768697 C63.8128646,6.17768697 63.6741374,6.15256355 63.6728618,6.15224146 L63.6374624,6.14579956 L63.6093981,6.16802412 C63.5781446,6.19250334 63.4993731,6.33068213 63.4646116,6.48238891 C63.4378229,6.59898733 63.4470714,6.69593795 63.4524929,6.7448964 L63.4416499,6.79417695 L63.4980975,6.82252132 C63.5041568,6.82542017 63.6524513,6.89789157 63.8941874,6.89789157 C64.7128371,6.89789157 65.0716142,6.37513125 65.4559044,5.6916455 L67.7386836,1.59717286 L67.6554473,1.56270869 Z"/>
    <path fill="#830051" d="M0.0250346704,48.3780043 C0.662860668,48.6897924 1.31025406,48.9017309 2.07341286,48.9886966 C5.85795342,49.4206261 9.23619881,46.7098739 9.66354223,42.8901484 C9.80482069,41.6246368 9.55192268,40.3256274 9.07801796,39.3593422 L0.0250346704,39.3593422 L0.0250346704,48.3780043 Z M20.1165536,52.4784357 C19.4787276,52.4172377 19.528478,52.3686013 19.2554885,52.3380023 C15.470629,51.9112263 12.0193526,54.6590194 11.5967928,58.4819659 C11.5403452,58.9921645 11.511962,59.6514931 11.563307,59.9735882 L20.1165536,59.9735882 L20.1165536,52.4784357 Z M6.76829057,58.726887 L9.5610117,57.9793043 C9.60374604,57.6778233 9.66178821,57.3840726 9.73290581,57.0932208 L7.39718701,55.2936756 L7.96357649,54.0342838 L10.8197613,54.4932693 C10.9792178,54.2355932 11.1511119,53.9859695 11.3338491,53.746975 L9.92680491,51.1463793 L10.94924,50.2267979 L13.3621357,51.8105394 C13.6134392,51.6346755 13.8746289,51.4726616 14.1434726,51.3244979 L13.9081148,48.3863466 L15.2131068,47.9605369 L16.7582403,50.3520929 C17.0682237,50.2921832 17.385861,50.2219665 17.7057308,50.1952326 L18.7237011,47.4074997 L20.1163941,47.5579181 L20.1163941,39.3593099 L13.8937637,39.3593099 L14.0589606,40.1291172 L11.6836966,41.3231236 C11.7136744,41.6906341 11.722604,42.0507364 11.7082529,42.4250109 L14.1469806,43.5900288 L13.8510294,44.9379967 L11.2040515,45.0726324 C11.0796754,45.4272591 10.9352078,45.7719009 10.769692,46.1033367 L12.5221189,48.1721534 L11.7085718,49.2856361 L9.22455849,48.3151636 C8.96942809,48.5831467 8.70058443,48.8327704 8.41483838,49.0669335 L9.18852132,51.6949072 L7.99833801,52.3777488 L6.10112458,50.4519423 C5.77136854,50.5859339 5.43013163,50.7022102 5.08187863,50.7972283 L4.72629064,53.5443772 L3.36325648,53.6786908 L2.39089075,51.0999976 C2.17817578,51.0919453 1.96450407,51.0745521 1.7492378,51.0497508 C1.61752673,51.0349344 1.48836696,51.0178634 1.36016394,50.996283 L0,53.4000786 L0.0248752139,53.3772098 L0.0248752139,59.9733949 L6.75872318,59.9733949 L6.76829057,58.726887 Z M30.3366309,39.9376639 C30.7167752,39.8832298 31.0790604,39.8420016 31.4234864,39.8146235 C31.7679124,39.7869234 32.1477378,39.7733954 32.564876,39.7733954 C32.9268423,39.7733954 33.2805168,39.7869234 33.6249428,39.8146235 C33.968731,39.8420016 34.3491942,39.8832298 34.7660135,39.9376639 L40.8798946,59.6708188 C40.1371463,59.7806533 39.412257,59.8354094 38.7058647,59.8354094 C38.0176505,59.8354094 37.3476143,59.7806533 36.6951183,59.6708188 L35.6082628,55.7187122 L29.1410261,55.7187122 L28.027063,59.6708188 C27.374567,59.7806533 26.7494975,59.8354094 26.1518545,59.8354094 C25.4818183,59.8354094 24.8200738,59.7806533 24.1678968,59.6708188 L30.3366309,39.9376639 Z M34.6846907,52.397912 L32.4290191,44.1097614 L30.0652359,52.397912 L34.6846907,52.397912 Z M43.668438,39.9377927 C44.3381553,39.8279583 44.9814028,39.7732021 45.5975427,39.7732021 C46.2312229,39.7732021 46.8926484,39.8279583 47.5818194,39.9377927 L47.5818194,56.2129349 L54.3472398,56.2129349 C54.4020928,56.5240788 54.4384489,56.8213725 54.456308,57.1048162 C54.474486,57.388904 54.4830967,57.6584976 54.4830967,57.9145632 C54.4830967,58.2073476 54.474486,58.4953006 54.456308,58.7787443 C54.4384489,59.0628322 54.4020928,59.3601259 54.3472398,59.6709477 L43.668438,59.6709477 L43.668438,39.9377927 Z M61.4671638,50.5316931 C60.8513428,50.2939869 60.2989855,50.033412 59.809773,49.7493241 C59.3211982,49.4658805 58.9037411,49.1276806 58.5599529,48.7340805 C58.2155269,48.3404803 57.9485967,47.8692552 57.7585245,47.3204052 C57.5678146,46.7715551 57.4730974,46.1128707 57.4730974,45.3446739 C57.4730974,44.4115645 57.6312783,43.5879674 57.9485967,42.8745268 C58.2652773,42.1610862 58.713669,41.5619893 59.2934528,41.0769142 C59.8729177,40.5924832 60.5706994,40.2262611 61.3861599,39.978892 C62.2013015,39.7321672 63.1156251,39.6088048 64.1307252,39.6088048 C65.0546161,39.6088048 65.9191893,39.690939 66.7257202,39.8555296 C67.5316134,40.0201202 68.3786463,40.2581485 69.2665001,40.5689702 C69.1577508,41.6305956 68.8678589,42.6735395 68.3968244,43.6978018 C68.1247916,43.5879674 67.8489318,43.4784551 67.5682884,43.3686206 C67.2866882,43.2587862 66.9881856,43.1673112 66.6711861,43.0938735 C66.3541866,43.02108 65.9960473,42.9614925 65.5980439,42.9154329 C65.1994026,42.8703396 64.7462273,42.8471487 64.2391556,42.8471487 C63.9310856,42.8471487 63.618232,42.8745268 63.3015514,42.929283 C62.9845519,42.9843612 62.6991247,43.085177 62.4459078,43.231086 C62.1914152,43.3779614 61.983484,43.5927988 61.8205194,43.8762425 C61.6578738,44.1603303 61.5762321,44.5304176 61.5762321,44.9877926 C61.5762321,45.3540147 61.6390579,45.6603271 61.7663042,45.9070519 C61.8929127,46.1540989 62.0654446,46.3647491 62.2826243,46.5386804 C62.500123,46.7126117 62.7447293,46.8588429 63.0164432,46.977696 C63.288157,47.0968712 63.5598709,47.2105707 63.8315848,47.3204052 L65.4621869,47.9517115 C66.1507201,48.2261365 66.7754707,48.5102244 67.3370765,48.8026867 C67.8983633,49.0954711 68.3738626,49.4568618 68.7638932,49.8865366 C69.1529671,50.3168557 69.4565723,50.8383276 69.6740709,51.4509524 C69.8912507,52.0642215 70,52.8192123 70,53.7152808 C70,54.6483903 69.8322518,55.4990434 69.4973931,56.2675622 C69.1618966,57.0360811 68.6771489,57.6947655 68.0437877,58.2436155 C67.4094697,58.7924656 66.6262194,59.2224625 65.69308,59.5336063 C64.7599405,59.8444281 63.6861605,60 62.4730154,60 C61.8747346,60 61.3405553,59.9816406 60.8695208,59.9455659 C60.3981674,59.9082029 59.9497758,59.8495816 59.5246647,59.7668032 C59.098597,59.6846689 58.6776318,59.5796659 58.2608125,59.45115 C57.8439932,59.3236003 57.4089959,59.1677063 56.9564584,58.9847563 C57.0109925,58.4542657 57.1104933,57.9005843 57.2552798,57.3243562 C57.4000663,56.747806 57.5719604,56.1673907 57.7716,55.5814997 C58.5328453,55.8929657 59.2481672,56.1258404 59.9188412,56.2817344 C60.5882396,56.4369842 61.3041993,56.5146092 62.0654446,56.5146092 C63.2065153,56.5146092 64.1036176,56.2997717 64.7557946,55.8697748 C65.4073339,55.4397779 65.7339008,54.7856028 65.7339008,53.9072495 C65.7339008,53.4682339 65.656405,53.1023339 65.5030078,52.8095495 C65.3486539,52.5170871 65.1496522,52.2700402 64.904727,52.0684087 C64.6604397,51.8674214 64.3839421,51.6979994 64.07651,51.5607869 C63.7681211,51.4238964 63.4511216,51.2908712 63.1251925,51.1629994 L61.4671638,50.5316931 Z M3.82759381,31.4420197 C3.44681169,31.4420197 3.13332021,31.5367156 2.87627634,31.7302948 L2.90848655,31.5901834 L2.84821199,31.5634495 C2.83577438,31.5576518 2.72032788,31.5093375 2.47763509,31.5093375 C2.23940708,31.5093375 2.10801492,31.5599065 2.10227449,31.561839 L2.06304819,31.5772996 L0.90826422,36.6306493 L0.892637483,36.6979672 L0.95610117,36.7237348 C0.967900951,36.7285662 1.07728811,36.7701164 1.31200808,36.7701164 C1.55406304,36.7701164 1.68896324,36.7275999 1.69470368,36.7256673 L1.73807584,36.7118172 L2.13639818,34.9683166 C2.30956794,35.1783226 2.58989246,35.2810709 2.98725806,35.2810709 C3.89552228,35.2810709 4.47945198,34.6591053 4.7718952,33.3797437 C4.94761626,32.6121911 4.91317366,32.0874982 4.666335,31.7740997 C4.49029502,31.5505657 4.21602984,31.4420197 3.82759381,31.4420197 Z M3.91178684,33.3433469 C3.67866144,34.3627778 3.34188931,34.5676303 2.87372503,34.5676303 C2.70087419,34.5676303 2.56980094,34.51223 2.48337552,34.4027176 C2.37622075,34.2664714 2.34656184,34.0480909 2.40237162,33.804265 L2.59945985,32.9416943 C2.68588528,32.5629105 2.99267958,32.1554603 3.46211951,32.1554603 C3.68121274,32.1554603 3.82121555,32.2031303 3.90190054,32.3055566 C4.03074139,32.4691809 4.03393052,32.8086691 3.91178684,33.3433469 Z M10.7556917,31.4420197 C9.69052227,31.4420197 9.03069128,32.0636632 8.73824806,33.3433469 C8.57528351,34.0561433 8.61993133,34.5595779 8.87474282,34.8836056 C9.08267409,35.1474014 9.43252165,35.2810709 9.91503702,35.2810709 C10.9805253,35.2810709 11.6406753,34.6591053 11.9327996,33.3797437 C12.096083,32.6653368 12.0517541,32.1609359 11.7975805,31.8381966 C11.5877357,31.5715019 11.2468177,31.4420197 10.7556917,31.4420197 Z M11.0726912,33.3433469 C10.8194743,34.4490993 10.4237033,34.6014503 10.0336727,34.6014503 C9.83020616,34.6014503 9.69690053,34.5528139 9.61430206,34.448133 C9.47493708,34.2716249 9.467921,33.9221518 9.59134033,33.3797437 C9.84487616,32.2710924 10.2623333,32.1216403 10.6370561,32.1216403 C10.8392469,32.1216403 10.9712769,32.1696324 11.0525997,32.273025 C11.190689,32.4482447 11.1970673,32.798362 11.0726912,33.3433469 Z M20.9543061,31.5092087 C20.7498829,31.5092087 20.6188097,31.5597776 20.6133881,31.5617102 L20.5859616,31.5726614 L19.4391505,33.7410055 C19.3779192,33.8550272 19.3214716,33.9642174 19.2701266,34.0692204 C19.2710833,33.9783896 19.2688509,33.8778959 19.2615159,33.7677394 L19.1377777,31.5845789 L19.0947245,31.564287 C19.0832436,31.5584892 18.9732186,31.5092087 18.7362662,31.5092087 C18.5229134,31.5092087 18.3427276,31.5568788 18.3350737,31.5591334 L18.3015878,31.5681521 L17.1643441,33.7480916 C17.1031128,33.8643679 17.0527245,33.9680825 17.010628,34.0605238 C17.0103091,33.9748465 17.0074389,33.8807948 16.999466,33.779979 L16.8403285,31.6309606 L16.8380961,31.5990732 L16.8148154,31.5778149 C16.7924915,31.5568788 16.7153146,31.5092087 16.4774055,31.5092087 C16.2471503,31.5092087 16.1039583,31.5588113 16.097899,31.5607439 L16.0404947,31.581358 L16.2898846,35.0918723 L16.2937116,35.1469505 L16.3460133,35.1633774 C16.4544437,35.1965532 16.5922141,35.2136242 16.7558165,35.2136242 C16.9232458,35.2136242 17.0616541,35.1971973 17.1783762,35.1636995 L17.2112243,35.1540366 L18.1848657,33.2984469 C18.2808585,33.1187178 18.3625002,32.9502621 18.4310665,32.7905029 C18.4269206,32.9383446 18.4297908,33.0958491 18.4390393,33.2646269 L18.5525724,35.1488831 L18.6077443,35.1640216 C18.7324393,35.1981636 18.858091,35.2136242 19.0146773,35.2136242 C19.1728581,35.2136242 19.3026557,35.1984857 19.4353235,35.1643436 L19.4697661,35.155325 L21.3427422,31.6097024 L21.2815109,31.5694405 C21.266522,31.5594555 21.1788209,31.5092087 20.9543061,31.5092087 Z M26.7203169,31.441923 C25.6994764,31.441923 24.9847924,32.1099482 24.7073381,33.3229583 C24.5440546,34.0380094 24.590297,34.5456312 24.8495733,34.8744903 C25.0619694,35.1440839 25.4175573,35.2809743 25.9067699,35.2809743 C26.6670585,35.2809743 27.1304391,34.9981748 27.1498928,34.9862573 L27.1795517,34.9675758 L27.1862488,34.9331116 C27.2270697,34.7218172 27.1779571,34.5085903 27.0583647,34.3778197 L27.016906,34.3327264 L26.9626908,34.3610707 C26.9588639,34.3630033 26.606465,34.5475638 26.1475492,34.5475638 C25.8825325,34.5475638 25.7115951,34.4464259 25.6098619,34.3253182 C25.4931397,34.1868173 25.4593349,33.8837258 25.5062152,33.5616307 L27.5810631,33.5616307 L27.603387,33.562597 C27.6091275,33.5513237 27.7459411,33.3013779 27.8438474,32.8723473 C27.9490887,32.4114292 27.9015707,32.0606677 27.7022501,31.807823 C27.5054807,31.5572331 27.1750869,31.441923 26.7203169,31.441923 Z M25.6564232,32.9174406 C25.8560627,32.2732504 26.1727433,32.0883679 26.5988111,32.0883679 C26.7793158,32.0883679 26.906881,32.1576183 26.9779986,32.248127 C27.0806886,32.3782534 27.0593215,32.5560499 27.0236032,32.7119439 C27.0009604,32.8124376 26.9748095,32.9174406 26.9553558,32.9174406 L25.6564232,32.9174406 Z M33.8179809,31.4488159 C33.619617,31.4488159 33.3287683,31.5216094 32.9948664,31.8330753 L33.0506762,31.5902156 L32.9904016,31.5631596 C32.977964,31.557684 32.8625175,31.5090477 32.6265219,31.5090477 C32.3780887,31.5090477 32.2565828,31.5570398 32.2431885,31.5625154 L32.2049189,31.5782981 L31.4073175,35.0678762 L31.3929664,35.1297184 L31.4490951,35.1583849 C31.4602571,35.1638605 31.5654984,35.2134631 31.8168018,35.2134631 C32.0540731,35.2134631 32.1908867,35.1638605 32.1969461,35.1616058 L32.237448,35.1467895 L32.8035186,32.6705225 C33.0436601,32.3770939 33.3223901,32.2025184 33.5523263,32.2025184 C33.6885022,32.2025184 33.7966137,32.2411698 33.8922876,32.3245924 L33.93853,32.3645322 L33.9889182,32.3303901 C34.2236382,32.1712751 34.3703382,31.9780181 34.4510232,31.7222746 L34.4685634,31.6665521 L34.4220021,31.6324101 C34.2529782,31.5090477 34.055571,31.4488159 33.8179809,31.4488159 Z M39.7817177,31.441923 C38.7611961,31.441923 38.0465121,32.1099482 37.7687389,33.3229583 C37.6054554,34.0380094 37.6516978,34.5456312 37.9109741,34.8744903 C38.1233701,35.1440839 38.479277,35.2809743 38.9684896,35.2809743 C39.7287782,35.2809743 40.1921587,34.9981748 40.2116124,34.9862573 L40.2412714,34.9675758 L40.2479685,34.9331116 C40.2887894,34.7218172 40.2399957,34.5085903 40.1200844,34.3778197 L40.0786257,34.3327264 L40.0244105,34.3610707 C40.0205836,34.3630033 39.6681847,34.5475638 39.20895,34.5475638 C38.9442522,34.5475638 38.7733148,34.4464259 38.6712627,34.3249961 C38.5545405,34.1868173 38.5207357,33.8837258 38.5676159,33.5616307 L40.6424639,33.5616307 L40.6651067,33.562597 C40.6705282,33.5513237 40.8076608,33.3013779 40.9055671,32.8723473 C41.0108084,32.4114292 40.9632904,32.0606677 40.7642887,31.807823 C40.5672004,31.5572331 40.2368066,31.441923 39.7817177,31.441923 Z M38.7184618,32.9174406 C38.9174635,32.2732504 39.2341441,32.0883679 39.6602119,32.0883679 C39.8407166,32.0883679 39.9682818,32.1576183 40.0397183,32.248127 C40.1420894,32.3782534 40.1210412,32.5560499 40.0856418,32.7116218 C40.0626801,32.8121155 40.0368481,32.9174406 40.0170755,32.9174406 L38.7184618,32.9174406 Z M48.1621773,30.0000322 C47.917571,30.0000322 47.7804384,30.050279 47.7743791,30.0525337 L47.734196,30.0676722 L47.3476735,31.7580271 C47.1713146,31.5457665 46.8909901,31.4420519 46.4977703,31.4420519 C45.5895061,31.4420519 45.0055764,32.0636954 44.7131332,33.3433791 C44.5374121,34.1109317 44.5718547,34.6359467 44.8186934,34.948701 C44.9944145,35.1725571 45.2689986,35.2811031 45.6571157,35.2811031 C46.0729782,35.2811031 46.4142151,35.1661152 46.6929451,34.9313079 L46.6725347,35.1403476 L46.7305768,35.1616058 C46.7359984,35.1638605 46.8718553,35.2137852 47.0552303,35.2137852 C47.2386052,35.2137852 47.3747811,35.1638605 47.3808404,35.1616058 L47.4213424,35.1467895 L48.5643266,30.1462634 L48.5789966,30.0831327 L48.5209544,30.0554326 C48.5091546,30.0496349 48.3991296,30.0000322 48.1621773,30.0000322 Z M47.0871216,32.8988879 L46.8884388,33.7675783 C46.8004188,34.1531261 46.4920299,34.5676625 46.0229089,34.5676625 C45.8034967,34.5676625 45.6634939,34.5196703 45.5828089,34.4172441 C45.454287,34.2539419 45.4510979,33.9144537 45.5732416,33.3797759 C45.806367,32.3600228 46.1431391,32.1551704 46.6113034,32.1551704 C46.7819218,32.1551704 46.9120383,32.2099265 46.9987827,32.3181505 C47.1052996,32.4514978 47.1371909,32.6637585 47.0871216,32.8988879 Z M59.2240892,31.4420197 C58.8429882,31.4420197 58.5294967,31.5367156 58.2724528,31.7302948 L58.6497269,30.0814901 L58.5894524,30.0544341 C58.5770148,30.0486364 58.4612493,30 58.2185565,30 C57.9806474,30 57.8489364,30.050891 57.8431959,30.0531457 L57.8039696,30.0686063 L56.6466344,35.1316188 L56.7049955,35.159319 C56.7167952,35.1647946 56.8271391,35.213753 57.0640915,35.213753 C57.3080599,35.213753 57.4451925,35.1638283 57.450933,35.1618957 L57.4914349,35.1470793 L57.5325747,34.9683166 C57.7057444,35.1783226 57.9857501,35.2810709 58.3834346,35.2810709 C59.2916988,35.2810709 59.8756285,34.6591053 60.1680717,33.3797437 C60.3437928,32.6121911 60.3093502,32.0871761 60.0625115,31.7740997 C59.8864715,31.5505657 59.6125253,31.4420197 59.2240892,31.4420197 Z M59.3079633,33.3433469 C59.0748379,34.3627778 58.7380658,34.5676303 58.2699015,34.5676303 C58.0970507,34.5676303 57.9659775,34.51223 57.879552,34.4027176 C57.7723973,34.2664714 57.7427384,34.0480909 57.7985481,33.8039429 L57.9953174,32.9416943 C58.0820618,32.5629105 58.389175,32.1554603 58.858296,32.1554603 C59.0773893,32.1554603 59.2173921,32.2031303 59.298077,32.3055566 C59.4269179,32.4691809 59.430107,32.8086691 59.3079633,33.3433469 Z M67.6554473,31.5627087 C67.6503447,31.560454 67.5259686,31.5092409 67.3138915,31.5092409 C67.0763013,31.5092409 66.9445902,31.5594877 66.9388498,31.5617424 L66.91238,31.5720494 L65.75058,33.6521395 C65.6300309,33.870842 65.5346759,34.0579793 65.4670663,34.1948697 C65.4587746,34.0589455 65.4434667,33.8801828 65.4147646,33.6727535 L65.0958516,31.5801018 L65.0543929,31.5623866 C65.0413175,31.556911 64.9201305,31.5092409 64.6783945,31.5092409 C64.4423988,31.5092409 64.2928286,31.5581994 64.2867693,31.560454 L64.2229867,31.5820344 L64.7517445,35.1395745 L64.7887384,35.158256 C64.826689,35.1775818 64.8649586,35.1891772 64.9032281,35.1969075 L64.7249558,35.5048304 C64.3703245,36.1464437 64.2111869,36.177687 63.9605213,36.177687 C63.8128646,36.177687 63.6741374,36.1525636 63.6728618,36.1522415 L63.6374624,36.1457996 L63.6093981,36.1680241 C63.5781446,36.1925033 63.4993731,36.3306821 63.4646116,36.4823889 C63.4378229,36.5989873 63.4470714,36.695938 63.4524929,36.7448964 L63.4416499,36.794177 L63.4980975,36.8225213 C63.5041568,36.8254202 63.6524513,36.8978916 63.8941874,36.8978916 C64.7128371,36.8978916 65.0716142,36.3751313 65.4559044,35.6916455 L67.7386836,31.5971729 L67.6554473,31.5627087 Z"/>
    <path fill="#FFFFFF" d="M0.0250346704,78.3780043 C0.662860668,78.6897924 1.31025406,78.9017309 2.07341286,78.9886966 C5.85795342,79.4206261 9.23619881,76.7098739 9.66354223,72.8901484 C9.80482069,71.6246368 9.55192268,70.3256274 9.07801796,69.3593422 L0.0250346704,69.3593422 L0.0250346704,78.3780043 Z M20.1165536,82.4784357 C19.4787276,82.4172377 19.528478,82.3686013 19.2554885,82.3380023 C15.470629,81.9112263 12.0193526,84.6590194 11.5967928,88.4819659 C11.5403452,88.9921645 11.511962,89.6514931 11.563307,89.9735882 L20.1165536,89.9735882 L20.1165536,82.4784357 Z M6.76829057,88.726887 L9.5610117,87.9793043 C9.60374604,87.6778233 9.66178821,87.3840726 9.73290581,87.0932208 L7.39718701,85.2936756 L7.96357649,84.0342838 L10.8197613,84.4932693 C10.9792178,84.2355932 11.1511119,83.9859695 11.3338491,83.746975 L9.92680491,81.1463793 L10.94924,80.2267979 L13.3621357,81.8105394 C13.6134392,81.6346755 13.8746289,81.4726616 14.1434726,81.3244979 L13.9081148,78.3863466 L15.2131068,77.9605369 L16.7582403,80.3520929 C17.0682237,80.2921832 17.385861,80.2219665 17.7057308,80.1952326 L18.7237011,77.4074997 L20.1163941,77.5579181 L20.1163941,69.3593099 L13.8937637,69.3593099 L14.0589606,70.1291172 L11.6836966,71.3231236 C11.7136744,71.6906341 11.722604,72.0507364 11.7082529,72.4250109 L14.1469806,73.5900288 L13.8510294,74.9379967 L11.2040515,75.0726324 C11.0796754,75.4272591 10.9352078,75.7719009 10.769692,76.1033367 L12.5221189,78.1721534 L11.7085718,79.2856361 L9.22455849,78.3151636 C8.96942809,78.5831467 8.70058443,78.8327704 8.41483838,79.0669335 L9.18852132,81.6949072 L7.99833801,82.3777488 L6.10112458,80.4519423 C5.77136854,80.5859339 5.43013163,80.7022102 5.08187863,80.7972283 L4.72629064,83.5443772 L3.36325648,83.6786908 L2.39089075,81.0999976 C2.17817578,81.0919453 1.96450407,81.0745521 1.7492378,81.0497508 C1.61752673,81.0349344 1.48836696,81.0178634 1.36016394,80.996283 L0,83.4000786 L0.0248752139,83.3772098 L0.0248752139,89.9733949 L6.75872318,89.9733949 L6.76829057,88.726887 Z M30.3366309,69.9376639 C30.7167752,69.8832298 31.0790604,69.8420016 31.4234864,69.8146235 C31.7679124,69.7869234 32.1477378,69.7733954 32.564876,69.7733954 C32.9268423,69.7733954 33.2805168,69.7869234 33.6249428,69.8146235 C33.968731,69.8420016 34.3491942,69.8832298 34.7660135,69.9376639 L40.8798946,89.6708188 C40.1371463,89.7806533 39.412257,89.8354094 38.7058647,89.8354094 C38.0176505,89.8354094 37.3476143,89.7806533 36.6951183,89.6708188 L35.6082628,85.7187122 L29.1410261,85.7187122 L28.027063,89.6708188 C27.374567,89.7806533 26.7494975,89.8354094 26.1518545,89.8354094 C25.4818183,89.8354094 24.8200738,89.7806533 24.1678968,89.6708188 L30.3366309,69.9376639 Z M34.6846907,82.397912 L32.4290191,74.1097614 L30.0652359,82.397912 L34.6846907,82.397912 Z M43.668438,69.9377927 C44.3381553,69.8279583 44.9814028,69.7732021 45.5975427,69.7732021 C46.2312229,69.7732021 46.8926484,69.8279583 47.5818194,69.9377927 L47.5818194,86.2129349 L54.3472398,86.2129349 C54.4020928,86.5240788 54.4384489,86.8213725 54.456308,87.1048162 C54.474486,87.388904 54.4830967,87.6584976 54.4830967,87.9145632 C54.4830967,88.2073476 54.474486,88.4953006 54.456308,88.7787443 C54.4384489,89.0628322 54.4020928,89.3601259 54.3472398,89.6709477 L43.668438,89.6709477 L43.668438,69.9377927 Z M61.4671638,80.5316931 C60.8513428,80.2939869 60.2989855,80.033412 59.809773,79.7493241 C59.3211982,79.4658805 58.9037411,79.1276806 58.5599529,78.7340805 C58.2155269,78.3404803 57.9485967,77.8692552 57.7585245,77.3204052 C57.5678146,76.7715551 57.4730974,76.1128707 57.4730974,75.3446739 C57.4730974,74.4115645 57.6312783,73.5879674 57.9485967,72.8745268 C58.2652773,72.1610862 58.713669,71.5619893 59.2934528,71.0769142 C59.8729177,70.5924832 60.5706994,70.2262611 61.3861599,69.978892 C62.2013015,69.7321672 63.1156251,69.6088048 64.1307252,69.6088048 C65.0546161,69.6088048 65.9191893,69.690939 66.7257202,69.8555296 C67.5316134,70.0201202 68.3786463,70.2581485 69.2665001,70.5689702 C69.1577508,71.6305956 68.8678589,72.6735395 68.3968244,73.6978018 C68.1247916,73.5879674 67.8489318,73.4784551 67.5682884,73.3686206 C67.2866882,73.2587862 66.9881856,73.1673112 66.6711861,73.0938735 C66.3541866,73.02108 65.9960473,72.9614925 65.5980439,72.9154329 C65.1994026,72.8703396 64.7462273,72.8471487 64.2391556,72.8471487 C63.9310856,72.8471487 63.618232,72.8745268 63.3015514,72.929283 C62.9845519,72.9843612 62.6991247,73.085177 62.4459078,73.231086 C62.1914152,73.3779614 61.983484,73.5927988 61.8205194,73.8762425 C61.6578738,74.1603303 61.5762321,74.5304176 61.5762321,74.9877926 C61.5762321,75.3540147 61.6390579,75.6603271 61.7663042,75.9070519 C61.8929127,76.1540989 62.0654446,76.3647491 62.2826243,76.5386804 C62.500123,76.7126117 62.7447293,76.8588429 63.0164432,76.977696 C63.288157,77.0968712 63.5598709,77.2105707 63.8315848,77.3204052 L65.4621869,77.9517115 C66.1507201,78.2261365 66.7754707,78.5102244 67.3370765,78.8026867 C67.8983633,79.0954711 68.3738626,79.4568618 68.7638932,79.8865366 C69.1529671,80.3168557 69.4565723,80.8383276 69.6740709,81.4509524 C69.8912507,82.0642215 70,82.8192123 70,83.7152808 C70,84.6483903 69.8322518,85.4990434 69.4973931,86.2675622 C69.1618966,87.0360811 68.6771489,87.6947655 68.0437877,88.2436155 C67.4094697,88.7924656 66.6262194,89.2224625 65.69308,89.5336063 C64.7599405,89.8444281 63.6861605,90 62.4730154,90 C61.8747346,90 61.3405553,89.9816406 60.8695208,89.9455659 C60.3981674,89.9082029 59.9497758,89.8495816 59.5246647,89.7668032 C59.098597,89.6846689 58.6776318,89.5796659 58.2608125,89.45115 C57.8439932,89.3236003 57.4089959,89.1677063 56.9564584,88.9847563 C57.0109925,88.4542657 57.1104933,87.9005843 57.2552798,87.3243562 C57.4000663,86.747806 57.5719604,86.1673907 57.7716,85.5814997 C58.5328453,85.8929657 59.2481672,86.1258404 59.9188412,86.2817344 C60.5882396,86.4369842 61.3041993,86.5146092 62.0654446,86.5146092 C63.2065153,86.5146092 64.1036176,86.2997717 64.7557946,85.8697748 C65.4073339,85.4397779 65.7339008,84.7856028 65.7339008,83.9072495 C65.7339008,83.4682339 65.656405,83.1023339 65.5030078,82.8095495 C65.3486539,82.5170871 65.1496522,82.2700402 64.904727,82.0684087 C64.6604397,81.8674214 64.3839421,81.6979994 64.07651,81.5607869 C63.7681211,81.4238964 63.4511216,81.2908712 63.1251925,81.1629994 L61.4671638,80.5316931 Z M3.82759381,61.4420197 C3.44681169,61.4420197 3.13332021,61.5367156 2.87627634,61.7302948 L2.90848655,61.5901834 L2.84821199,61.5634495 C2.83577438,61.5576518 2.72032788,61.5093375 2.47763509,61.5093375 C2.23940708,61.5093375 2.10801492,61.5599065 2.10227449,61.561839 L2.06304819,61.5772996 L0.90826422,66.6306493 L0.892637483,66.6979672 L0.95610117,66.7237348 C0.967900951,66.7285662 1.07728811,66.7701164 1.31200808,66.7701164 C1.55406304,66.7701164 1.68896324,66.7275999 1.69470368,66.7256673 L1.73807584,66.7118172 L2.13639818,64.9683166 C2.30956794,65.1783226 2.58989246,65.2810709 2.98725806,65.2810709 C3.89552228,65.2810709 4.47945198,64.6591053 4.7718952,63.3797437 C4.94761626,62.6121911 4.91317366,62.0874982 4.666335,61.7740997 C4.49029502,61.5505657 4.21602984,61.4420197 3.82759381,61.4420197 Z M3.91178684,63.3433469 C3.67866144,64.3627778 3.34188931,64.5676303 2.87372503,64.5676303 C2.70087419,64.5676303 2.56980094,64.51223 2.48337552,64.4027176 C2.37622075,64.2664714 2.34656184,64.0480909 2.40237162,63.804265 L2.59945985,62.9416943 C2.68588528,62.5629105 2.99267958,62.1554603 3.46211951,62.1554603 C3.68121274,62.1554603 3.82121555,62.2031303 3.90190054,62.3055566 C4.03074139,62.4691809 4.03393052,62.8086691 3.91178684,63.3433469 Z M10.7556917,61.4420197 C9.69052227,61.4420197 9.03069128,62.0636632 8.73824806,63.3433469 C8.57528351,64.0561433 8.61993133,64.5595779 8.87474282,64.8836056 C9.08267409,65.1474014 9.43252165,65.2810709 9.91503702,65.2810709 C10.9805253,65.2810709 11.6406753,64.6591053 11.9327996,63.3797437 C12.096083,62.6653368 12.0517541,62.1609359 11.7975805,61.8381966 C11.5877357,61.5715019 11.2468177,61.4420197 10.7556917,61.4420197 Z M11.0726912,63.3433469 C10.8194743,64.4490993 10.4237033,64.6014503 10.0336727,64.6014503 C9.83020616,64.6014503 9.69690053,64.5528139 9.61430206,64.448133 C9.47493708,64.2716249 9.467921,63.9221518 9.59134033,63.3797437 C9.84487616,62.2710924 10.2623333,62.1216403 10.6370561,62.1216403 C10.8392469,62.1216403 10.9712769,62.1696324 11.0525997,62.273025 C11.190689,62.4482447 11.1970673,62.798362 11.0726912,63.3433469 Z M20.9543061,61.5092087 C20.7498829,61.5092087 20.6188097,61.5597776 20.6133881,61.5617102 L20.5859616,61.5726614 L19.4391505,63.7410055 C19.3779192,63.8550272 19.3214716,63.9642174 19.2701266,64.0692204 C19.2710833,63.9783896 19.2688509,63.8778959 19.2615159,63.7677394 L19.1377777,61.5845789 L19.0947245,61.564287 C19.0832436,61.5584892 18.9732186,61.5092087 18.7362662,61.5092087 C18.5229134,61.5092087 18.3427276,61.5568788 18.3350737,61.5591334 L18.3015878,61.5681521 L17.1643441,63.7480916 C17.1031128,63.8643679 17.0527245,63.9680825 17.010628,64.0605238 C17.0103091,63.9748465 17.0074389,63.8807948 16.999466,63.779979 L16.8403285,61.6309606 L16.8380961,61.5990732 L16.8148154,61.5778149 C16.7924915,61.5568788 16.7153146,61.5092087 16.4774055,61.5092087 C16.2471503,61.5092087 16.1039583,61.5588113 16.097899,61.5607439 L16.0404947,61.581358 L16.2898846,65.0918723 L16.2937116,65.1469505 L16.3460133,65.1633774 C16.4544437,65.1965532 16.5922141,65.2136242 16.7558165,65.2136242 C16.9232458,65.2136242 17.0616541,65.1971973 17.1783762,65.1636995 L17.2112243,65.1540366 L18.1848657,63.2984469 C18.2808585,63.1187178 18.3625002,62.9502621 18.4310665,62.7905029 C18.4269206,62.9383446 18.4297908,63.0958491 18.4390393,63.2646269 L18.5525724,65.1488831 L18.6077443,65.1640216 C18.7324393,65.1981636 18.858091,65.2136242 19.0146773,65.2136242 C19.1728581,65.2136242 19.3026557,65.1984857 19.4353235,65.1643436 L19.4697661,65.155325 L21.3427422,61.6097024 L21.2815109,61.5694405 C21.266522,61.5594555 21.1788209,61.5092087 20.9543061,61.5092087 Z M26.7203169,61.441923 C25.6994764,61.441923 24.9847924,62.1099482 24.7073381,63.3229583 C24.5440546,64.0380094 24.590297,64.5456312 24.8495733,64.8744903 C25.0619694,65.1440839 25.4175573,65.2809743 25.9067699,65.2809743 C26.6670585,65.2809743 27.1304391,64.9981748 27.1498928,64.9862573 L27.1795517,64.9675758 L27.1862488,64.9331116 C27.2270697,64.7218172 27.1779571,64.5085903 27.0583647,64.3778197 L27.016906,64.3327264 L26.9626908,64.3610707 C26.9588639,64.3630033 26.606465,64.5475638 26.1475492,64.5475638 C25.8825325,64.5475638 25.7115951,64.4464259 25.6098619,64.3253182 C25.4931397,64.1868173 25.4593349,63.8837258 25.5062152,63.5616307 L27.5810631,63.5616307 L27.603387,63.562597 C27.6091275,63.5513237 27.7459411,63.3013779 27.8438474,62.8723473 C27.9490887,62.4114292 27.9015707,62.0606677 27.7022501,61.807823 C27.5054807,61.5572331 27.1750869,61.441923 26.7203169,61.441923 Z M25.6564232,62.9174406 C25.8560627,62.2732504 26.1727433,62.0883679 26.5988111,62.0883679 C26.7793158,62.0883679 26.906881,62.1576183 26.9779986,62.248127 C27.0806886,62.3782534 27.0593215,62.5560499 27.0236032,62.7119439 C27.0009604,62.8124376 26.9748095,62.9174406 26.9553558,62.9174406 L25.6564232,62.9174406 Z M33.8179809,61.4488159 C33.619617,61.4488159 33.3287683,61.5216094 32.9948664,61.8330753 L33.0506762,61.5902156 L32.9904016,61.5631596 C32.977964,61.557684 32.8625175,61.5090477 32.6265219,61.5090477 C32.3780887,61.5090477 32.2565828,61.5570398 32.2431885,61.5625154 L32.2049189,61.5782981 L31.4073175,65.0678762 L31.3929664,65.1297184 L31.4490951,65.1583849 C31.4602571,65.1638605 31.5654984,65.2134631 31.8168018,65.2134631 C32.0540731,65.2134631 32.1908867,65.1638605 32.1969461,65.1616058 L32.237448,65.1467895 L32.8035186,62.6705225 C33.0436601,62.3770939 33.3223901,62.2025184 33.5523263,62.2025184 C33.6885022,62.2025184 33.7966137,62.2411698 33.8922876,62.3245924 L33.93853,62.3645322 L33.9889182,62.3303901 C34.2236382,62.1712751 34.3703382,61.9780181 34.4510232,61.7222746 L34.4685634,61.6665521 L34.4220021,61.6324101 C34.2529782,61.5090477 34.055571,61.4488159 33.8179809,61.4488159 Z M39.7817177,61.441923 C38.7611961,61.441923 38.0465121,62.1099482 37.7687389,63.3229583 C37.6054554,64.0380094 37.6516978,64.5456312 37.9109741,64.8744903 C38.1233701,65.1440839 38.479277,65.2809743 38.9684896,65.2809743 C39.7287782,65.2809743 40.1921587,64.9981748 40.2116124,64.9862573 L40.2412714,64.9675758 L40.2479685,64.9331116 C40.2887894,64.7218172 40.2399957,64.5085903 40.1200844,64.3778197 L40.0786257,64.3327264 L40.0244105,64.3610707 C40.0205836,64.3630033 39.6681847,64.5475638 39.20895,64.5475638 C38.9442522,64.5475638 38.7733148,64.4464259 38.6712627,64.3249961 C38.5545405,64.1868173 38.5207357,63.8837258 38.5676159,63.5616307 L40.6424639,63.5616307 L40.6651067,63.562597 C40.6705282,63.5513237 40.8076608,63.3013779 40.9055671,62.8723473 C41.0108084,62.4114292 40.9632904,62.0606677 40.7642887,61.807823 C40.5672004,61.5572331 40.2368066,61.441923 39.7817177,61.441923 Z M38.7184618,62.9174406 C38.9174635,62.2732504 39.2341441,62.0883679 39.6602119,62.0883679 C39.8407166,62.0883679 39.9682818,62.1576183 40.0397183,62.248127 C40.1420894,62.3782534 40.1210412,62.5560499 40.0856418,62.7116218 C40.0626801,62.8121155 40.0368481,62.9174406 40.0170755,62.9174406 L38.7184618,62.9174406 Z M48.1621773,60.0000322 C47.917571,60.0000322 47.7804384,60.050279 47.7743791,60.0525337 L47.734196,60.0676722 L47.3476735,61.7580271 C47.1713146,61.5457665 46.8909901,61.4420519 46.4977703,61.4420519 C45.5895061,61.4420519 45.0055764,62.0636954 44.7131332,63.3433791 C44.5374121,64.1109317 44.5718547,64.6359467 44.8186934,64.948701 C44.9944145,65.1725571 45.2689986,65.2811031 45.6571157,65.2811031 C46.0729782,65.2811031 46.4142151,65.1661152 46.6929451,64.9313079 L46.6725347,65.1403476 L46.7305768,65.1616058 C46.7359984,65.1638605 46.8718553,65.2137852 47.0552303,65.2137852 C47.2386052,65.2137852 47.3747811,65.1638605 47.3808404,65.1616058 L47.4213424,65.1467895 L48.5643266,60.1462634 L48.5789966,60.0831327 L48.5209544,60.0554326 C48.5091546,60.0496349 48.3991296,60.0000322 48.1621773,60.0000322 Z M47.0871216,62.8988879 L46.8884388,63.7675783 C46.8004188,64.1531261 46.4920299,64.5676625 46.0229089,64.5676625 C45.8034967,64.5676625 45.6634939,64.5196703 45.5828089,64.4172441 C45.454287,64.2539419 45.4510979,63.9144537 45.5732416,63.3797759 C45.806367,62.3600228 46.1431391,62.1551704 46.6113034,62.1551704 C46.7819218,62.1551704 46.9120383,62.2099265 46.9987827,62.3181505 C47.1052996,62.4514978 47.1371909,62.6637585 47.0871216,62.8988879 Z M59.2240892,61.4420197 C58.8429882,61.4420197 58.5294967,61.5367156 58.2724528,61.7302948 L58.6497269,60.0814901 L58.5894524,60.0544341 C58.5770148,60.0486364 58.4612493,60 58.2185565,60 C57.9806474,60 57.8489364,60.050891 57.8431959,60.0531457 L57.8039696,60.0686063 L56.6466344,65.1316188 L56.7049955,65.159319 C56.7167952,65.1647946 56.8271391,65.213753 57.0640915,65.213753 C57.3080599,65.213753 57.4451925,65.1638283 57.450933,65.1618957 L57.4914349,65.1470793 L57.5325747,64.9683166 C57.7057444,65.1783226 57.9857501,65.2810709 58.3834346,65.2810709 C59.2916988,65.2810709 59.8756285,64.6591053 60.1680717,63.3797437 C60.3437928,62.6121911 60.3093502,62.0871761 60.0625115,61.7740997 C59.8864715,61.5505657 59.6125253,61.4420197 59.2240892,61.4420197 Z M59.3079633,63.3433469 C59.0748379,64.3627778 58.7380658,64.5676303 58.2699015,64.5676303 C58.0970507,64.5676303 57.9659775,64.51223 57.879552,64.4027176 C57.7723973,64.2664714 57.7427384,64.0480909 57.7985481,63.8039429 L57.9953174,62.9416943 C58.0820618,62.5629105 58.389175,62.1554603 58.858296,62.1554603 C59.0773893,62.1554603 59.2173921,62.2031303 59.298077,62.3055566 C59.4269179,62.4691809 59.430107,62.8086691 59.3079633,63.3433469 Z M67.6554473,61.5627087 C67.6503447,61.560454 67.5259686,61.5092409 67.3138915,61.5092409 C67.0763013,61.5092409 66.9445902,61.5594877 66.9388498,61.5617424 L66.91238,61.5720494 L65.75058,63.6521395 C65.6300309,63.870842 65.5346759,64.0579793 65.4670663,64.1948697 C65.4587746,64.0589455 65.4434667,63.8801828 65.4147646,63.6727535 L65.0958516,61.5801018 L65.0543929,61.5623866 C65.0413175,61.556911 64.9201305,61.5092409 64.6783945,61.5092409 C64.4423988,61.5092409 64.2928286,61.5581994 64.2867693,61.560454 L64.2229867,61.5820344 L64.7517445,65.1395745 L64.7887384,65.158256 C64.826689,65.1775818 64.8649586,65.1891772 64.9032281,65.1969075 L64.7249558,65.5048304 C64.3703245,66.1464437 64.2111869,66.177687 63.9605213,66.177687 C63.8128646,66.177687 63.6741374,66.1525636 63.6728618,66.1522415 L63.6374624,66.1457996 L63.6093981,66.1680241 C63.5781446,66.1925033 63.4993731,66.3306821 63.4646116,66.4823889 C63.4378229,66.5989873 63.4470714,66.695938 63.4524929,66.7448964 L63.4416499,66.794177 L63.4980975,66.8225213 C63.5041568,66.8254202 63.6524513,66.8978916 63.8941874,66.8978916 C64.7128371,66.8978916 65.0716142,66.3751313 65.4559044,65.6916455 L67.7386836,61.5971729 L67.6554473,61.5627087 Z"/>
  </g>
</svg>
